<svg xmlns="http://www.w3.org/2000/svg" width="501" height="500" viewBox="0 0 501 500" fill="none">
<path d="M240.937 122.845C235.534 159.335 231.201 190.08 223.42 237.936C244.46 237.5 292.253 245.526 302.761 180.123C311.475 125.699 272.67 120.676 240.937 122.845Z" fill="#21262E"/>
<path d="M423.275 386.004C431.455 403.477 423.213 425.56 406.12 434.459C396.31 439.568 385.118 444.329 373.913 446.984C362.634 449.651 344.296 453.015 320.904 453.938C319.796 453.975 318.688 454 317.605 454C287.253 454 256.851 437.35 243.73 417.073C240.343 424.077 228.093 438.123 206.668 444.74C193.123 448.928 176.789 454 142.702 453.963C112.164 453.938 94.7597 440.677 85.5347 429.524C70.8817 411.814 68.7279 389.319 71.5913 374.165L71.7407 373.442C83.244 317.996 99.0299 217.237 106.275 166.738L106.35 166.24C108.342 152.245 110.359 138.237 111.554 124.142C112.152 117.038 112.55 109.909 112.625 102.781C112.699 96.0385 112.04 89.3087 112.114 82.5665C112.189 76.2231 113.247 69.7799 116.359 64.1718C121.401 55.0866 130.651 47.9331 140.424 44.8175C151.143 41.4027 162.36 40.0069 173.502 38.7856C184.894 37.5394 196.297 36.3056 207.763 35.483C212.345 35.159 216.926 34.8848 221.507 34.6605C230.882 34.2243 240.281 34 249.668 34C273.608 34 297.698 34.3988 321.265 39.0473C345.305 43.7831 369.569 52.8683 388.529 68.7705C401.514 79.6627 411.834 93.4214 419.565 108.464C426.375 121.724 429.127 135.669 430.757 146.35C432.588 158.301 432.973 170.452 431.928 182.466C431.231 190.442 430.11 197.434 428.504 203.827C425.081 217.436 419.229 230.472 411.1 242.573C402.074 256.02 390.496 268.208 375.719 279.836C384.719 304.836 408.149 353.714 423.275 386.004ZM154.517 85.1089C155.077 94.381 155.164 103.753 154.754 113.062C154.33 122.571 153.471 132.055 152.376 141.502C151.293 150.924 149.973 160.308 148.641 169.692C148.491 170.714 148.355 171.736 148.205 172.77C143.997 202.107 139.59 231.419 134.946 260.681C130.079 291.414 124.613 322.009 119.148 352.642C116.608 366.912 110.919 385.207 118.7 398.841C125.647 411.004 143.437 412.475 155.837 411.253C201.016 406.829 208.186 397.208 208.186 397.208C199.186 387.649 207.004 344.043 216.079 285.419H248.187L281.788 382.839C281.788 382.839 291.697 413.023 319.235 411.565C354.505 409.708 380.449 401.969 384.184 397.694C373.316 391.874 342.279 317.448 325.348 262.787C333.54 258.014 341.483 252.805 348.965 246.972C359.211 238.984 368.685 229.762 375.955 218.932C381.171 211.155 385.155 202.581 387.433 193.483C388.641 188.685 389.313 183.675 389.737 178.752C390.496 170.091 390.21 161.342 388.89 152.756C387.633 144.505 385.74 135.32 381.906 127.855C374.747 113.922 364.626 101.771 350.832 93.9947C327.552 80.8841 300.723 78.3791 274.567 76.9958C246.22 75.4878 217.735 76.3851 189.537 79.6752C186.388 80.0491 154.392 82.741 154.517 85.1089Z" fill="#21262E"/>
</svg>